<svg width="12" height="12" viewBox="0 0 12 12" fill="none" xmlns="http://www.w3.org/2000/svg">
<g clip-path="url(#clip0_0_17336)">
<path fill-rule="evenodd" clip-rule="evenodd" d="M10.0619 9.33333C10.2531 9.33311 10.4428 9.36997 10.6217 9.44212L9.23107 3.05592C9.22312 3.01943 9.221 2.98178 9.22482 2.94454L9.30362 2.17167C9.3726 1.5081 9.15368 0.847251 8.70909 0.377C8.48299 0.135675 8.1761 0.000178699 7.85615 0.000416667C7.85126 0.000416667 7.84638 0.00025 7.84153 0H2.82355C4.8713 0.237037 4.29558 3.33333 4.29558 3.33333L4.87843 6L5.38665 8.33333L5.60429 9.33333H10.0619ZM2.21388 2.76915e-06H2.20043C1.83862 0.00229951 1.49688 0.17759 1.26943 0.477544C1.04012 0.77763 0.950705 1.17231 1.02627 1.55088L2.83295 10.6765C2.9892 11.4472 3.62775 11.9979 4.36743 12H10.0619C10.58 12 11 11.5523 11 11C11 10.4477 10.58 10 10.0619 10H5.35569C5.21016 10.0001 5.08381 9.89312 5.05092 9.742L4.74436 8.33334L4.23621 6L3.59712 3.07563C3.5956 3.06871 3.59431 3.06179 3.59321 3.05479L3.59009 3.03479C3.5854 3.00487 3.58457 2.97441 3.58762 2.94425L3.6658 2.1705C3.73435 1.50747 3.51575 0.847262 3.07194 0.377003C2.84403 0.135185 2.53544 -0.000395987 2.21388 2.76915e-06Z" fill="#C2C6D2"/>
</g>
<defs>
<clipPath id="clip0_0_17336">
<rect width="12" height="12" fill="white"/>
</clipPath>
</defs>
</svg>
