<svg width="24" height="23" viewBox="0 0 24 23" fill="none" xmlns="http://www.w3.org/2000/svg">
<path fill-rule="evenodd" clip-rule="evenodd" d="M21.8129 7.21579C22.7387 6.93057 23.6991 7.55287 23.9422 8.59003C24.1852 9.62719 23.6413 10.6903 22.704 10.9885L16.5593 12.8294L11.5256 14.3333L5.38098 16.1743L3.5295 16.7317L2.63847 15.0075L1.08067 11.9772C0.795429 11.4223 1.08324 10.7447 1.68059 10.5647C2.01013 10.4654 2.36759 10.5428 2.62651 10.7696L4.48996 12.4016L10.2411 10.6773L6.15966 2.75792C5.79147 2.04351 6.16426 1.17043 6.9349 0.942276C7.3948 0.806121 7.89223 0.938211 8.224 1.28459L15.6683 9.05676L21.8129 7.21579ZM2.6623 19.6486C1.94654 19.6486 1.3663 20.2293 1.3663 20.945C1.3663 21.6608 1.94654 22.2415 2.6623 22.2415H21.9221C22.6378 22.2415 23.2181 21.6608 23.2181 20.945C23.2181 20.2293 22.6378 19.6486 21.9221 19.6486H2.6623Z" fill="white"/>
</svg>
