<svg width="14" height="14" viewBox="0 0 14 14" fill="none" xmlns="http://www.w3.org/2000/svg">
<path fill-rule="evenodd" clip-rule="evenodd" d="M6.78618 11.7639H4.73591C4.58214 11.7639 4.45735 11.6386 4.45735 11.4844V8.13019C4.45735 7.9759 4.58214 7.85067 4.73591 7.85067H8.38628C8.94397 7.49849 9.60139 7.29165 10.3073 7.29165C10.6549 7.29165 11.0031 7.34308 11.3419 7.44426C11.4266 7.47054 11.5174 7.45321 11.5876 7.40066C11.626 7.37215 11.6556 7.33413 11.6751 7.29165H13.098C13.2607 7.28829 13.3827 7.16866 13.3821 7.01213C13.3821 6.91095 13.3286 6.82262 13.2484 6.77343L11.6996 5.21933V0.862827C11.6996 0.708535 11.5748 0.583313 11.421 0.583313H9.19245C9.03868 0.583313 8.91388 0.708535 8.91388 0.862827V2.42419L7.3578 0.862827C6.99956 0.502813 6.37278 0.502254 6.01343 0.862827L0.08159 6.81424C0.00191943 6.89418 -0.0220375 7.01437 0.0214192 7.11891C0.0643188 7.22344 0.166275 7.29165 0.278817 7.29165H1.67166V13.7205C1.67166 13.8748 1.79646 14 1.95023 14H7.5801C7.6932 14 7.79515 13.9312 7.83805 13.8261C7.88095 13.721 7.85588 13.6003 7.7751 13.5209C7.27757 13.0317 6.94162 12.4246 6.78618 11.7639ZM10.3524 7.85063C8.66262 7.85063 7.28816 9.22975 7.28816 10.9253C7.28816 12.6208 8.66262 13.9999 10.3524 13.9999C12.0422 13.9999 13.4167 12.6208 13.4167 10.9253C13.4167 9.22975 12.0422 7.85063 10.3524 7.85063ZM10.631 11.2048H11.4667C11.621 11.2048 11.7453 11.0796 11.7453 10.9253C11.7453 10.771 11.6205 10.6458 11.4667 10.6458H10.631V9.80723C10.631 9.65294 10.5062 9.52771 10.3524 9.52771C10.1986 9.52771 10.0738 9.65294 10.0738 9.80723V10.6458H9.23814C9.08437 10.6458 8.95957 10.771 8.95957 10.9253C8.95957 11.0796 9.08437 11.2048 9.23814 11.2048H10.0738V12.0433C10.0738 12.1976 10.1986 12.3229 10.3524 12.3229C10.5062 12.3229 10.631 12.1976 10.631 12.0433V11.2048Z" fill="#2E3758"/>
</svg>
